<svg width="308" height="119" viewBox="0 0 308 119" fill="none" xmlns="http://www.w3.org/2000/svg">
<path d="M44.5227 0.181816H61.3636V45.2159C61.3636 50.4205 60.125 54.9545 57.6477 58.8182C55.1705 62.6591 51.7159 65.6364 47.2841 67.75C42.8523 69.8409 37.7045 70.8864 31.8409 70.8864C25.9091 70.8864 20.7273 69.8409 16.2955 67.75C11.8636 65.6364 8.42045 62.6591 5.96591 58.8182C3.51136 54.9545 2.28409 50.4205 2.28409 45.2159V0.181816H19.1591V43.75C19.1591 46.1591 19.6818 48.3068 20.7273 50.1932C21.7955 52.0795 23.2841 53.5568 25.1932 54.625C27.1023 55.6932 29.3182 56.2273 31.8409 56.2273C34.3636 56.2273 36.5682 55.6932 38.4545 54.625C40.3636 53.5568 41.8523 52.0795 42.9205 50.1932C43.9886 48.3068 44.5227 46.1591 44.5227 43.75V0.181816ZM105.452 35.3295V48.1818H73.1335V35.3295H105.452ZM146.778 17.6364V29.9091H113.744V17.6364H146.778ZM120.665 5.09091H137.335V53.5341C137.335 54.5568 137.494 55.3864 137.812 56.0227C138.153 56.6364 138.642 57.0795 139.278 57.3523C139.915 57.6023 140.676 57.7273 141.562 57.7273C142.199 57.7273 142.869 57.6705 143.574 57.5568C144.301 57.4205 144.847 57.3068 145.21 57.2159L147.733 69.25C146.938 69.4773 145.813 69.7614 144.358 70.1023C142.926 70.4432 141.21 70.6591 139.21 70.75C135.301 70.9318 131.949 70.4773 129.153 69.3864C126.381 68.2727 124.256 66.5455 122.778 64.2045C121.324 61.8636 120.619 58.9205 120.665 55.375V5.09091ZM189.068 47.3977V17.6364H205.705V70H189.818V60.25H189.273C188.114 63.4545 186.136 66 183.341 67.8864C180.568 69.75 177.216 70.6818 173.284 70.6818C169.716 70.6818 166.58 69.8636 163.875 68.2273C161.17 66.5909 159.068 64.3068 157.568 61.375C156.068 58.4205 155.307 54.9659 155.284 51.0114V17.6364H171.955V47.7386C171.977 50.5795 172.727 52.8182 174.205 54.4545C175.682 56.0909 177.693 56.9091 180.239 56.9091C181.898 56.9091 183.386 56.5455 184.705 55.8182C186.045 55.0682 187.102 53.9886 187.875 52.5795C188.67 51.1477 189.068 49.4205 189.068 47.3977ZM216.315 70V17.6364H232.509V27.1818H233.054C234.009 23.7273 235.565 21.1591 237.724 19.4773C239.884 17.7727 242.395 16.9205 245.259 16.9205C246.031 16.9205 246.827 16.9773 247.645 17.0909C248.463 17.1818 249.224 17.3295 249.929 17.5341V32.0227C249.134 31.75 248.088 31.5341 246.793 31.375C245.52 31.2159 244.384 31.1364 243.384 31.1364C241.406 31.1364 239.622 31.5795 238.031 32.4659C236.463 33.3295 235.224 34.5455 234.315 36.1136C233.429 37.6591 232.986 39.4773 232.986 41.5682V70H216.315ZM273.392 40.1364V70H256.722V17.6364H272.574V27.25H273.153C274.313 24.0455 276.29 21.5341 279.085 19.7159C281.881 17.875 285.21 16.9545 289.074 16.9545C292.756 16.9545 295.949 17.7841 298.653 19.4432C301.381 21.0795 303.494 23.375 304.994 26.3295C306.517 29.2614 307.267 32.6932 307.244 36.625V70H290.574V39.8977C290.597 36.9886 289.858 34.7159 288.358 33.0795C286.881 31.4432 284.824 30.625 282.188 30.625C280.438 30.625 278.892 31.0114 277.551 31.7841C276.233 32.5341 275.21 33.6136 274.483 35.0227C273.778 36.4318 273.415 38.1364 273.392 40.1364ZM0.196023 118V88.9091H10.5653C12.8191 88.9091 14.6894 89.2973 16.1761 90.0739C17.6723 90.8504 18.7898 91.9252 19.5284 93.2983C20.267 94.6619 20.6364 96.2386 20.6364 98.0284C20.6364 99.8087 20.2623 101.376 19.5142 102.73C18.7756 104.075 17.6581 105.121 16.1619 105.869C14.6752 106.617 12.8049 106.991 10.5511 106.991H2.69602V103.213H10.1534C11.5739 103.213 12.7292 103.009 13.6193 102.602C14.5189 102.195 15.1771 101.603 15.5938 100.827C16.0104 100.05 16.2188 99.1174 16.2188 98.0284C16.2188 96.9299 16.0057 95.9782 15.5795 95.1733C15.1629 94.3684 14.5047 93.7528 13.6051 93.3267C12.715 92.8911 11.5455 92.6733 10.0966 92.6733H4.58523V118H0.196023ZM14.5568 104.875L21.7443 118H16.7443L9.69886 104.875H14.5568ZM34.7663 118.44C32.6167 118.44 30.7654 117.981 29.2124 117.062C27.6688 116.134 26.4756 114.832 25.6328 113.156C24.7995 111.471 24.3828 109.496 24.3828 107.233C24.3828 104.998 24.7995 103.028 25.6328 101.324C26.4756 99.6193 27.6499 98.2888 29.1555 97.3324C30.6707 96.3759 32.4415 95.8977 34.468 95.8977C35.6991 95.8977 36.8923 96.1013 38.0476 96.5085C39.2029 96.9157 40.2398 97.5549 41.1584 98.4261C42.0769 99.2973 42.8014 100.429 43.3317 101.821C43.862 103.204 44.1271 104.884 44.1271 106.864V108.369H26.7834V105.188H39.9652C39.9652 104.07 39.7379 103.08 39.2834 102.219C38.8288 101.348 38.1896 100.661 37.3658 100.159C36.5514 99.6572 35.5949 99.4062 34.4964 99.4062C33.3033 99.4062 32.2616 99.6998 31.3714 100.287C30.4908 100.865 29.8089 101.622 29.326 102.56C28.8525 103.488 28.6158 104.496 28.6158 105.585V108.071C28.6158 109.529 28.8714 110.77 29.3828 111.793C29.9036 112.815 30.6281 113.597 31.5561 114.136C32.4841 114.667 33.5684 114.932 34.8089 114.932C35.6139 114.932 36.3478 114.818 37.0107 114.591C37.6735 114.354 38.2464 114.004 38.7294 113.54C39.2124 113.076 39.5817 112.503 39.8374 111.821L43.8572 112.545C43.5353 113.729 42.9576 114.766 42.1243 115.656C41.3004 116.537 40.2635 117.223 39.0135 117.716C37.773 118.199 36.3572 118.44 34.7663 118.44ZM55.1889 118.483C53.8063 118.483 52.5563 118.227 51.4389 117.716C50.3215 117.195 49.4361 116.442 48.7827 115.457C48.1387 114.473 47.8168 113.265 47.8168 111.835C47.8168 110.604 48.0535 109.591 48.527 108.795C49.0005 108 49.6397 107.37 50.4446 106.906C51.2495 106.442 52.1491 106.092 53.1435 105.855C54.1378 105.618 55.151 105.438 56.1832 105.315C57.4901 105.164 58.5507 105.041 59.3651 104.946C60.1795 104.842 60.7713 104.676 61.1406 104.449C61.5099 104.222 61.6946 103.852 61.6946 103.341V103.241C61.6946 102.001 61.3442 101.04 60.6435 100.358C59.9522 99.6761 58.92 99.3352 57.5469 99.3352C56.117 99.3352 54.9901 99.6525 54.1662 100.287C53.3518 100.912 52.7884 101.608 52.4759 102.375L48.4844 101.466C48.9579 100.14 49.6491 99.0701 50.5582 98.2557C51.4768 97.4318 52.5327 96.8352 53.7259 96.4659C54.919 96.0871 56.1738 95.8977 57.4901 95.8977C58.3613 95.8977 59.2846 96.0019 60.2599 96.2102C61.2448 96.4091 62.1634 96.7784 63.0156 97.3182C63.8774 97.858 64.5829 98.6297 65.1321 99.6335C65.6813 100.628 65.956 101.92 65.956 103.511V118H61.8082V115.017H61.6378C61.3632 115.566 60.9512 116.106 60.402 116.636C59.8527 117.167 59.1473 117.607 58.2855 117.957C57.4238 118.308 56.3916 118.483 55.1889 118.483ZM56.1122 115.074C57.2865 115.074 58.2902 114.842 59.1236 114.378C59.9664 113.914 60.6056 113.308 61.0412 112.56C61.4863 111.802 61.7088 110.992 61.7088 110.131V107.318C61.5573 107.47 61.2637 107.612 60.8281 107.744C60.402 107.867 59.9143 107.976 59.3651 108.071C58.8158 108.156 58.2808 108.237 57.7599 108.312C57.2391 108.379 56.8035 108.436 56.4531 108.483C55.6293 108.587 54.8764 108.762 54.1946 109.009C53.5223 109.255 52.9825 109.61 52.5753 110.074C52.1776 110.528 51.9787 111.134 51.9787 111.892C51.9787 112.943 52.367 113.739 53.1435 114.278C53.92 114.809 54.9096 115.074 56.1122 115.074ZM75.8601 88.9091V118H71.6129V88.9091H75.8601ZM92.5007 118V88.9091H110.739V92.6875H96.8899V101.551H109.788V105.315H96.8899V114.222H110.91V118H92.5007ZM132.611 101.509L128.761 102.19C128.6 101.698 128.345 101.229 127.994 100.784C127.653 100.339 127.189 99.9744 126.602 99.6903C126.015 99.4062 125.281 99.2642 124.401 99.2642C123.198 99.2642 122.194 99.5341 121.389 100.074C120.584 100.604 120.182 101.291 120.182 102.134C120.182 102.863 120.452 103.45 120.991 103.895C121.531 104.34 122.402 104.705 123.605 104.989L127.071 105.784C129.079 106.248 130.575 106.963 131.56 107.929C132.545 108.895 133.037 110.15 133.037 111.693C133.037 113 132.658 114.165 131.901 115.188C131.152 116.201 130.106 116.996 128.761 117.574C127.426 118.152 125.878 118.44 124.116 118.44C121.673 118.44 119.68 117.92 118.136 116.878C116.593 115.827 115.646 114.335 115.295 112.403L119.401 111.778C119.656 112.848 120.182 113.658 120.977 114.207C121.773 114.747 122.81 115.017 124.088 115.017C125.48 115.017 126.593 114.728 127.426 114.151C128.259 113.563 128.676 112.848 128.676 112.006C128.676 111.324 128.42 110.751 127.909 110.287C127.407 109.823 126.635 109.473 125.594 109.236L121.901 108.426C119.865 107.962 118.359 107.223 117.384 106.21C116.418 105.197 115.935 103.914 115.935 102.361C115.935 101.073 116.295 99.946 117.014 98.9801C117.734 98.0142 118.728 97.2614 119.997 96.7216C121.266 96.1723 122.72 95.8977 124.358 95.8977C126.716 95.8977 128.572 96.4091 129.926 97.4318C131.28 98.4451 132.175 99.804 132.611 101.509ZM147.891 96.1818V99.5909H135.974V96.1818H147.891ZM139.17 90.9545H143.417V111.594C143.417 112.418 143.54 113.038 143.786 113.455C144.032 113.862 144.35 114.141 144.738 114.293C145.136 114.435 145.567 114.506 146.031 114.506C146.371 114.506 146.67 114.482 146.925 114.435C147.181 114.387 147.38 114.349 147.522 114.321L148.289 117.83C148.043 117.924 147.692 118.019 147.238 118.114C146.783 118.218 146.215 118.275 145.533 118.284C144.416 118.303 143.374 118.104 142.408 117.688C141.442 117.271 140.661 116.627 140.065 115.756C139.468 114.884 139.17 113.791 139.17 112.474V90.9545ZM158.939 118.483C157.556 118.483 156.306 118.227 155.189 117.716C154.071 117.195 153.186 116.442 152.533 115.457C151.889 114.473 151.567 113.265 151.567 111.835C151.567 110.604 151.804 109.591 152.277 108.795C152.75 108 153.39 107.37 154.195 106.906C155 106.442 155.899 106.092 156.893 105.855C157.888 105.618 158.901 105.438 159.933 105.315C161.24 105.164 162.301 105.041 163.115 104.946C163.929 104.842 164.521 104.676 164.891 104.449C165.26 104.222 165.445 103.852 165.445 103.341V103.241C165.445 102.001 165.094 101.04 164.393 100.358C163.702 99.6761 162.67 99.3352 161.297 99.3352C159.867 99.3352 158.74 99.6525 157.916 100.287C157.102 100.912 156.538 101.608 156.226 102.375L152.234 101.466C152.708 100.14 153.399 99.0701 154.308 98.2557C155.227 97.4318 156.283 96.8352 157.476 96.4659C158.669 96.0871 159.924 95.8977 161.24 95.8977C162.111 95.8977 163.035 96.0019 164.01 96.2102C164.995 96.4091 165.913 96.7784 166.766 97.3182C167.627 97.858 168.333 98.6297 168.882 99.6335C169.431 100.628 169.706 101.92 169.706 103.511V118H165.558V115.017H165.388C165.113 115.566 164.701 116.106 164.152 116.636C163.603 117.167 162.897 117.607 162.036 117.957C161.174 118.308 160.142 118.483 158.939 118.483ZM159.862 115.074C161.036 115.074 162.04 114.842 162.874 114.378C163.716 113.914 164.356 113.308 164.791 112.56C165.236 111.802 165.459 110.992 165.459 110.131V107.318C165.307 107.47 165.014 107.612 164.578 107.744C164.152 107.867 163.664 107.976 163.115 108.071C162.566 108.156 162.031 108.237 161.51 108.312C160.989 108.379 160.554 108.436 160.203 108.483C159.379 108.587 158.626 108.762 157.945 109.009C157.272 109.255 156.732 109.61 156.325 110.074C155.928 110.528 155.729 111.134 155.729 111.892C155.729 112.943 156.117 113.739 156.893 114.278C157.67 114.809 158.66 115.074 159.862 115.074ZM185.548 96.1818V99.5909H173.63V96.1818H185.548ZM176.826 90.9545H181.073V111.594C181.073 112.418 181.196 113.038 181.442 113.455C181.689 113.862 182.006 114.141 182.394 114.293C182.792 114.435 183.223 114.506 183.687 114.506C184.028 114.506 184.326 114.482 184.582 114.435C184.837 114.387 185.036 114.349 185.178 114.321L185.945 117.83C185.699 117.924 185.349 118.019 184.894 118.114C184.44 118.218 183.871 118.275 183.19 118.284C182.072 118.303 181.031 118.104 180.065 117.688C179.099 117.271 178.317 116.627 177.721 115.756C177.124 114.884 176.826 113.791 176.826 112.474V90.9545ZM199.415 118.44C197.265 118.44 195.414 117.981 193.861 117.062C192.317 116.134 191.124 114.832 190.281 113.156C189.448 111.471 189.031 109.496 189.031 107.233C189.031 104.998 189.448 103.028 190.281 101.324C191.124 99.6193 192.298 98.2888 193.804 97.3324C195.319 96.3759 197.09 95.8977 199.116 95.8977C200.348 95.8977 201.541 96.1013 202.696 96.5085C203.851 96.9157 204.888 97.5549 205.807 98.4261C206.725 99.2973 207.45 100.429 207.98 101.821C208.51 103.204 208.776 104.884 208.776 106.864V108.369H191.432V105.188H204.614C204.614 104.07 204.386 103.08 203.932 102.219C203.477 101.348 202.838 100.661 202.014 100.159C201.2 99.6572 200.243 99.4062 199.145 99.4062C197.952 99.4062 196.91 99.6998 196.02 100.287C195.139 100.865 194.457 101.622 193.974 102.56C193.501 103.488 193.264 104.496 193.264 105.585V108.071C193.264 109.529 193.52 110.77 194.031 111.793C194.552 112.815 195.277 113.597 196.205 114.136C197.133 114.667 198.217 114.932 199.457 114.932C200.262 114.932 200.996 114.818 201.659 114.591C202.322 114.354 202.895 114.004 203.378 113.54C203.861 113.076 204.23 112.503 204.486 111.821L208.506 112.545C208.184 113.729 207.606 114.766 206.773 115.656C205.949 116.537 204.912 117.223 203.662 117.716C202.421 118.199 201.006 118.44 199.415 118.44Z" fill="#C59B1D"/>
</svg>
